<mxfile host="65bd71144e">
    <diagram id="yuJrTvzA3viMhPaGGEgy" name="Page-1">
        <mxGraphModel dx="1678" dy="604" grid="1" gridSize="10" guides="1" tooltips="1" connect="1" arrows="1" fold="1" page="1" pageScale="1" pageWidth="850" pageHeight="1100" background="none" math="0" shadow="0">
            <root>
                <mxCell id="0"/>
                <mxCell id="1" parent="0"/>
                <mxCell id="2" value="&#10;controllers&#10;" style="swimlane;startSize=30;" parent="1" vertex="1">
                    <mxGeometry x="254" y="464" width="81.5" height="210" as="geometry"/>
                </mxCell>
                <mxCell id="7" value="doctor&lt;br&gt;user&lt;br&gt;appointment" style="text;html=1;align=center;verticalAlign=middle;resizable=0;points=[];autosize=1;strokeColor=none;fillColor=none;" parent="2" vertex="1">
                    <mxGeometry x="-7.5" y="40" width="90" height="60" as="geometry"/>
                </mxCell>
                <mxCell id="3" value="&#10;index.js&#10;" style="swimlane;startSize=30;" parent="1" vertex="1">
                    <mxGeometry x="54" y="464" width="60" height="210" as="geometry"/>
                </mxCell>
                <mxCell id="4" value="routers.js" style="swimlane;startSize=29;" parent="1" vertex="1">
                    <mxGeometry x="154" y="465" width="60" height="210" as="geometry"/>
                </mxCell>
                <mxCell id="5" value="&#10;services&#10;" style="swimlane;startSize=30;" parent="1" vertex="1">
                    <mxGeometry x="374" y="464" width="75" height="290" as="geometry">
                        <mxRectangle x="263" y="50" width="100" height="30" as="alternateBounds"/>
                    </mxGeometry>
                </mxCell>
                <mxCell id="13" value="Listar&lt;br&gt;Inserir&lt;br&gt;Editar&lt;br&gt;Excluir&lt;br&gt;" style="text;html=1;align=center;verticalAlign=middle;resizable=0;points=[];autosize=1;strokeColor=none;fillColor=none;" parent="5" vertex="1">
                    <mxGeometry y="90" width="60" height="70" as="geometry"/>
                </mxCell>
                <mxCell id="14" value="Regras de&amp;nbsp;&lt;br&gt;NegÃ³cio" style="text;html=1;align=center;verticalAlign=middle;resizable=0;points=[];autosize=1;strokeColor=none;fillColor=none;" parent="5" vertex="1">
                    <mxGeometry x="-3" y="250" width="80" height="40" as="geometry"/>
                </mxCell>
                <mxCell id="8" value="doctor" style="text;html=1;align=center;verticalAlign=middle;resizable=0;points=[];autosize=1;strokeColor=none;fillColor=none;" parent="1" vertex="1">
                    <mxGeometry x="370" y="499" width="60" height="30" as="geometry"/>
                </mxCell>
                <mxCell id="9" value="repository" style="swimlane;startSize=28;" parent="1" vertex="1">
                    <mxGeometry x="484" y="466" width="72" height="288" as="geometry">
                        <mxRectangle x="263" y="50" width="100" height="30" as="alternateBounds"/>
                    </mxGeometry>
                </mxCell>
                <mxCell id="10" value="doctor" style="text;html=1;align=center;verticalAlign=middle;resizable=0;points=[];autosize=1;strokeColor=none;fillColor=none;" parent="1" vertex="1">
                    <mxGeometry x="489" y="501" width="60" height="30" as="geometry"/>
                </mxCell>
                <mxCell id="11" value="" style="shape=datastore;whiteSpace=wrap;html=1;" parent="1" vertex="1">
                    <mxGeometry x="490" y="864" width="60" height="90" as="geometry"/>
                </mxCell>
                <mxCell id="12" value="" style="shape=flexArrow;endArrow=classic;html=1;" parent="1" edge="1">
                    <mxGeometry width="50" height="50" relative="1" as="geometry">
                        <mxPoint x="520" y="760" as="sourcePoint"/>
                        <mxPoint x="519.5" y="860" as="targetPoint"/>
                    </mxGeometry>
                </mxCell>
                <mxCell id="16" value="" style="html=1;shadow=0;dashed=0;align=center;verticalAlign=middle;shape=mxgraph.arrows2.sharpArrow2;dy1=0.67;dx1=18;dx2=18;dy3=0.15;dx3=27;notch=0;" parent="1" vertex="1">
                    <mxGeometry x="448" y="504" width="40" height="20" as="geometry"/>
                </mxCell>
                <mxCell id="17" value="" style="html=1;shadow=0;dashed=0;align=center;verticalAlign=middle;shape=mxgraph.arrows2.sharpArrow2;dy1=0.67;dx1=18;dx2=18;dy3=0.15;dx3=27;notch=0;" parent="1" vertex="1">
                    <mxGeometry x="334" y="505" width="40" height="20" as="geometry"/>
                </mxCell>
                <mxCell id="18" value="" style="html=1;shadow=0;dashed=0;align=center;verticalAlign=middle;shape=mxgraph.arrows2.sharpArrow2;dy1=0.67;dx1=18;dx2=18;dy3=0.15;dx3=27;notch=0;" parent="1" vertex="1">
                    <mxGeometry x="213" y="507" width="40" height="20" as="geometry"/>
                </mxCell>
                <mxCell id="19" value="Nova Conta&#10;Login" style="swimlane;startSize=30;" vertex="1" parent="1">
                    <mxGeometry x="-140" y="850" width="80" height="210" as="geometry"/>
                </mxCell>
                <mxCell id="33" value="Token&lt;br&gt;" style="text;html=1;align=center;verticalAlign=middle;resizable=0;points=[];autosize=1;strokeColor=none;fillColor=none;" vertex="1" parent="19">
                    <mxGeometry y="154" width="60" height="30" as="geometry"/>
                </mxCell>
                <mxCell id="20" value="Servidor" style="swimlane;startSize=30;" vertex="1" parent="1">
                    <mxGeometry x="105" y="860" width="60" height="210" as="geometry"/>
                </mxCell>
                <mxCell id="40" value="V" style="text;html=1;align=center;verticalAlign=middle;resizable=0;points=[];autosize=1;strokeColor=none;fillColor=none;" vertex="1" parent="20">
                    <mxGeometry x="21.5" y="180" width="30" height="30" as="geometry"/>
                </mxCell>
                <mxCell id="21" value="" style="shape=datastore;whiteSpace=wrap;html=1;" vertex="1" parent="1">
                    <mxGeometry x="235" y="960" width="60" height="90" as="geometry"/>
                </mxCell>
                <mxCell id="23" value="JWT Token&lt;br&gt;" style="text;html=1;strokeColor=none;fillColor=none;align=center;verticalAlign=middle;whiteSpace=wrap;rounded=0;" vertex="1" parent="1">
                    <mxGeometry x="230" y="1000" width="60" height="30" as="geometry"/>
                </mxCell>
                <mxCell id="25" value="" style="endArrow=classic;html=1;exitX=1;exitY=0.25;exitDx=0;exitDy=0;" edge="1" parent="1" source="20" target="21">
                    <mxGeometry width="50" height="50" relative="1" as="geometry">
                        <mxPoint x="135" y="960" as="sourcePoint"/>
                        <mxPoint x="185" y="910" as="targetPoint"/>
                    </mxGeometry>
                </mxCell>
                <mxCell id="26" value="" style="endArrow=classic;html=1;exitX=0;exitY=0.75;exitDx=0;exitDy=0;" edge="1" parent="1" source="20" target="33">
                    <mxGeometry width="50" height="50" relative="1" as="geometry">
                        <mxPoint x="90" y="950" as="sourcePoint"/>
                        <mxPoint x="140" y="900" as="targetPoint"/>
                    </mxGeometry>
                </mxCell>
                <mxCell id="27" value="" style="endArrow=classic;html=1;" edge="1" parent="1">
                    <mxGeometry width="50" height="50" relative="1" as="geometry">
                        <mxPoint x="-60" y="920" as="sourcePoint"/>
                        <mxPoint x="110" y="920" as="targetPoint"/>
                    </mxGeometry>
                </mxCell>
                <mxCell id="28" value="" style="endArrow=classic;html=1;entryX=1;entryY=0.75;entryDx=0;entryDy=0;" edge="1" parent="1" target="20">
                    <mxGeometry width="50" height="50" relative="1" as="geometry">
                        <mxPoint x="230" y="1010" as="sourcePoint"/>
                        <mxPoint x="185" y="910" as="targetPoint"/>
                    </mxGeometry>
                </mxCell>
                <mxCell id="29" value="{ id_user: 1}" style="text;html=1;strokeColor=none;fillColor=none;align=center;verticalAlign=middle;whiteSpace=wrap;rounded=0;" vertex="1" parent="1">
                    <mxGeometry x="394" y="950" width="90" height="30" as="geometry"/>
                </mxCell>
                <mxCell id="30" value="200" style="text;html=1;align=center;verticalAlign=middle;resizable=0;points=[];autosize=1;strokeColor=none;fillColor=none;" vertex="1" parent="1">
                    <mxGeometry x="-20" y="950" width="40" height="30" as="geometry"/>
                </mxCell>
                <mxCell id="31" value="{ &lt;br&gt;&amp;nbsp; &amp;nbsp; &amp;nbsp; &amp;nbsp; &amp;nbsp; &amp;nbsp; &amp;nbsp; &amp;nbsp; &amp;nbsp; &amp;nbsp; &amp;nbsp; &amp;nbsp;id_user: 1,&lt;span style=&quot;white-space: pre;&quot;&gt;&#9;&lt;/span&gt;&lt;br&gt;&lt;span style=&quot;white-space: pre;&quot;&gt;&#9;&lt;/span&gt;&amp;nbsp; &amp;nbsp; &amp;nbsp; &amp;nbsp; &amp;nbsp; &amp;nbsp; &amp;nbsp; &amp;nbsp; &amp;nbsp; &amp;nbsp; &amp;nbsp; &amp;nbsp;name:&amp;nbsp; &amp;nbsp; &amp;nbsp; &quot;Eduardo&quot;,&lt;br&gt;&amp;nbsp; &amp;nbsp; &amp;nbsp; &amp;nbsp; &amp;nbsp; &amp;nbsp; &amp;nbsp; &amp;nbsp; &amp;nbsp; &amp;nbsp; &amp;nbsp; &amp;nbsp; &amp;nbsp; &amp;nbsp; &amp;nbsp; &amp;nbsp; &amp;nbsp; &amp;nbsp; &amp;nbsp; &amp;nbsp; &amp;nbsp;email:&amp;nbsp; &amp;nbsp; &amp;nbsp; &amp;nbsp;&quot;edu@mail.com,&lt;br&gt;&amp;nbsp; &amp;nbsp; &amp;nbsp; &amp;nbsp; &amp;nbsp; &amp;nbsp; &amp;nbsp; &amp;nbsp; &amp;nbsp; &amp;nbsp; &amp;nbsp; &amp;nbsp; &amp;nbsp; &amp;nbsp; &amp;nbsp; token:&amp;nbsp; &amp;nbsp; &amp;nbsp;&quot;XXXXXX&quot;&lt;br&gt;}" style="text;html=1;align=center;verticalAlign=middle;resizable=0;points=[];autosize=1;strokeColor=none;fillColor=none;" vertex="1" parent="1">
                    <mxGeometry x="-110" y="985" width="300" height="100" as="geometry"/>
                </mxCell>
                <mxCell id="34" value="Home" style="swimlane;startSize=30;" vertex="1" parent="1">
                    <mxGeometry x="-120" y="1150" width="60" height="210" as="geometry"/>
                </mxCell>
                <mxCell id="36" value="" style="endArrow=classic;html=1;entryX=0.5;entryY=0;entryDx=0;entryDy=0;" edge="1" parent="1" source="33" target="34">
                    <mxGeometry width="50" height="50" relative="1" as="geometry">
                        <mxPoint x="-100" y="1050" as="sourcePoint"/>
                        <mxPoint x="110" y="1080" as="targetPoint"/>
                    </mxGeometry>
                </mxCell>
                <mxCell id="37" value="" style="endArrow=classic;html=1;exitX=1;exitY=0.5;exitDx=0;exitDy=0;entryX=0.5;entryY=1;entryDx=0;entryDy=0;" edge="1" parent="1" source="34" target="20">
                    <mxGeometry width="50" height="50" relative="1" as="geometry">
                        <mxPoint x="60" y="1130" as="sourcePoint"/>
                        <mxPoint x="110" y="1080" as="targetPoint"/>
                    </mxGeometry>
                </mxCell>
                <mxCell id="38" value="Listar Doctors&lt;br&gt;Token" style="text;html=1;align=center;verticalAlign=middle;resizable=0;points=[];autosize=1;strokeColor=none;fillColor=none;" vertex="1" parent="1">
                    <mxGeometry x="-40" y="1180" width="100" height="40" as="geometry"/>
                </mxCell>
                <mxCell id="39" value="" style="endArrow=classic;html=1;" edge="1" parent="1">
                    <mxGeometry width="50" height="50" relative="1" as="geometry">
                        <mxPoint x="164.5" y="1049.9367088607594" as="sourcePoint"/>
                        <mxPoint x="238" y="1025.126582278481" as="targetPoint"/>
                    </mxGeometry>
                </mxCell>
                <mxCell id="41" value="" style="endArrow=classic;html=1;exitX=1.038;exitY=1.028;exitDx=0;exitDy=0;exitPerimeter=0;" edge="1" parent="1" source="40">
                    <mxGeometry width="50" height="50" relative="1" as="geometry">
                        <mxPoint x="80" y="1190" as="sourcePoint"/>
                        <mxPoint x="-60" y="1280" as="targetPoint"/>
                    </mxGeometry>
                </mxCell>
                <mxCell id="42" value="&lt;font style=&quot;font-size: 18px;&quot;&gt;CriaÃ§Ã£o do Token&lt;/font&gt;" style="text;html=1;align=center;verticalAlign=middle;resizable=0;points=[];autosize=1;strokeColor=none;fillColor=none;" vertex="1" parent="1">
                    <mxGeometry x="-46" y="810" width="160" height="40" as="geometry"/>
                </mxCell>
            </root>
        </mxGraphModel>
    </diagram>
</mxfile>